<svg width="84" height="84" viewBox="0 0 84 84" fill="none" xmlns="http://www.w3.org/2000/svg">
<path fill-rule="evenodd" clip-rule="evenodd" d="M42 84C65.196 84 84 65.196 84 42C84 18.804 65.196 0 42 0C18.804 0 0 18.804 0 42C0 65.196 18.804 84 42 84ZM25.4079 57.8801C21.9617 57.8366 19.5187 57.9238 19.5187 57.9238C19.5187 57.9238 19.4749 45.3601 19.1697 27.7359C19.1697 27.7359 24.8407 27.6921 31.6027 27.5614C31.6027 27.5614 31.5589 29.568 31.5589 33.4069C31.5589 33.4069 29.3341 33.3634 25.1025 33.4941C25.1025 33.4941 25.1025 36.3734 25.1462 42.0009C25.2382 42.0009 25.3608 42.0018 25.514 42.0032C26.3769 42.0102 28.2063 42.0249 30.9482 41.9137C30.9482 41.9137 30.9482 44.2695 30.992 47.6722C30.992 47.6722 29.0724 47.5849 25.2334 47.6722L25.4079 57.8801ZM44.4417 58.6655C44.4417 58.6655 40.2103 58.6655 35.7606 58.491C33.6666 40.1251 32.1397 28.739 32.1397 28.739C35.4552 28.739 38.1162 28.6518 38.1162 28.6518C38.9014 40.6485 39.7303 49.6788 40.123 53.5614C41.7806 36.7661 42.4351 27.4741 42.4351 27.4741C46.3175 27.5176 48.6298 27.4304 48.6298 27.4304C45.5323 49.4608 44.4417 58.6655 44.4417 58.6655ZM65.4292 45.2726C65.6037 55.699 62.201 58.7962 57.3149 58.7527C51.3822 58.7527 48.9391 54.3466 48.9391 42.9171C48.9391 32.1417 51.3384 26.9069 57.6641 26.9069C63.5534 26.9069 65.4292 32.0982 65.2547 39.4706C61.3721 39.4271 58.929 39.2961 58.929 39.2961C58.9728 33.7996 58.6238 31.88 57.3587 31.88C55.8318 31.88 55.3518 34.803 55.4391 42.8733C55.4391 51.2929 55.919 53.7794 57.4024 53.7794C58.4928 53.7794 59.2345 52.3835 59.0163 45.4036C62.4627 45.2726 65.4292 45.2726 65.4292 45.2726Z" fill="#222222"/>
</svg>
